<svg id="b1a30e1f-db4c-4e1e-9588-d396bcc5711a" data-name="Capa 1" xmlns="http://www.w3.org/2000/svg" viewBox="0 0 580.44 416.61"><defs><style>.be2c9310-1911-477d-a42a-bd89f0da2b18{fill:#1d1f3e;}.ecac02e3-eabf-4f51-8325-cd6c1fa8965e{fill:#502683;}.a9ac28bd-bb30-4af5-9a35-94d8d5da4723{fill:none;}</style></defs><path class="be2c9310-1911-477d-a42a-bd89f0da2b18" d="M321.08,279.42V391.11q0,25.67-14,39.53t-38.73,13.88q-26.82,0-42.54-15.15t-15.73-43.58h39.08q0,22.89,17.34,22.89,15,0,15-17.57V279.42Z" transform="translate(-209.78 -279.42)"/><path class="be2c9310-1911-477d-a42a-bd89f0da2b18" d="M475.54,313.88v129H435.77V419.55a42.9,42.9,0,0,1-16.54,18q-11,6.71-25.55,6.71-22.18,0-35.26-14.8t-13.06-40.7V313.88h39.31v70.06q0,13.17,6.82,20.46t18.38,7.28q12,0,19-7.63t6.94-21.73V313.88Z" transform="translate(-209.78 -279.42)"/><path class="be2c9310-1911-477d-a42a-bd89f0da2b18" d="M577.27,319A40.35,40.35,0,0,1,593,337.23V313.88H632.3v129H593V419.55a40.27,40.27,0,0,1-15.72,18.26q-10.63,6.7-25.43,6.71a52.24,52.24,0,0,1-28.56-8q-12.6-8-19.89-23t-7.28-35.14q0-20.34,7.28-35.26t19.89-22.89a52.24,52.24,0,0,1,28.56-8Q566.63,312.26,577.27,319Zm-33.18,36.31q-7.76,8.31-7.75,23.12t7.75,23.12q7.74,8.33,20.46,8.32,12.5,0,20.47-8.55t8-22.89q0-14.56-8-23t-20.47-8.44Q551.83,346.94,544.09,355.27Z" transform="translate(-209.78 -279.42)"/><path class="be2c9310-1911-477d-a42a-bd89f0da2b18" d="M776.7,327.29q13.06,14.79,13.07,40.69V442.9H750.22V372.61q0-12.94-6.82-20.23t-18.15-7.29q-12,0-19.07,7.63t-7,21.74V442.9H659.59v-129h39.54v23.58a42.55,42.55,0,0,1,16.53-18.27q11-6.69,25.78-6.7Q763.64,312.49,776.7,327.29Z" transform="translate(-209.78 -279.42)"/><path class="be2c9310-1911-477d-a42a-bd89f0da2b18" d="M418.65,539.67a47.86,47.86,0,0,1,24.93-6.83v41.65H432.42q-15.48,0-24,6.6t-8.54,22.31v57.81H361v-127h38.92v23.9A55.25,55.25,0,0,1,418.65,539.67Z" transform="translate(-209.78 -279.42)"/><path class="be2c9310-1911-477d-a42a-bd89f0da2b18" d="M586.29,534.2v127H547.14v-23A42.17,42.17,0,0,1,530.86,656q-10.8,6.6-25.15,6.6-21.84,0-34.71-14.57T458.14,608V534.2h38.7v69q0,13,6.71,20.14t18.1,7.17q11.82,0,18.66-7.51t6.83-21.39V534.2Z" transform="translate(-209.78 -279.42)"/><path class="be2c9310-1911-477d-a42a-bd89f0da2b18" d="M615.87,483.79q6.38-5.81,16.85-5.81t16.84,5.81a19,19,0,0,1,6.37,14.68,18.73,18.73,0,0,1-6.37,14.45q-6.37,5.8-16.84,5.81t-16.85-5.81a18.73,18.73,0,0,1-6.37-14.45A19,19,0,0,1,615.87,483.79Zm36.19,50.41v127H613.14v-127Z" transform="translate(-209.78 -279.42)"/><path class="be2c9310-1911-477d-a42a-bd89f0da2b18" d="M719.21,629.8h71v31.41H676V631.62l69.87-100.15h-69V500.29h112.9v29.59Z" transform="translate(-209.78 -279.42)"/><path class="ecac02e3-eabf-4f51-8325-cd6c1fa8965e" d="M232.74,622.12a48.12,48.12,0,0,1-.81,8.07,63,63,0,0,0-.89,9.42q0,8.52,3.45,14.08a18.63,18.63,0,0,0,8.65,7.71v1.16H228.79a19.18,19.18,0,0,1-4.93-3.72,23.46,23.46,0,0,1-4.8-7.62,30.74,30.74,0,0,1-2.1-12,62.32,62.32,0,0,1,.89-9.24,51.29,51.29,0,0,0,.81-8.25,9.94,9.94,0,0,0-2-6.23q-2-2.65-6.86-3.1v-5.38q8.88-1,8.88-9.33a51.29,51.29,0,0,0-.81-8.25,62.2,62.2,0,0,1-.89-9.24,30.74,30.74,0,0,1,2.1-12,23.46,23.46,0,0,1,4.8-7.62,19.42,19.42,0,0,1,4.93-3.72h14.35v1.16a18.6,18.6,0,0,0-8.65,7.72Q231,571.35,231,579.88a59.48,59.48,0,0,0,.89,9.23,50.93,50.93,0,0,1,.81,8.17,13.12,13.12,0,0,1-2.42,8.29q-2.43,3.09-7.53,4.08v.18Q232.74,611.72,232.74,622.12Z" transform="translate(-209.78 -279.42)"/><path class="ecac02e3-eabf-4f51-8325-cd6c1fa8965e" d="M266.91,591.27V606.6H251V591.27Zm0,36.5V643.1H251V627.77Z" transform="translate(-209.78 -279.42)"/><path class="ecac02e3-eabf-4f51-8325-cd6c1fa8965e" d="M275.52,660V647.59h13.36V570.28H275.52V557.9h27.8V660Z" transform="translate(-209.78 -279.42)"/><path class="ecac02e3-eabf-4f51-8325-cd6c1fa8965e" d="M327.62,605.93a10.64,10.64,0,0,1-2.42-7.31,50.93,50.93,0,0,1,.81-8.16,59.89,59.89,0,0,0,.9-9.24,31.65,31.65,0,0,0-1.66-10.36,25.51,25.51,0,0,0-4.44-8.11,16.11,16.11,0,0,0-6-4.67v-1.16h14.35a19.25,19.25,0,0,1,4.93,3.72,23.14,23.14,0,0,1,4.8,7.62,30.73,30.73,0,0,1,2.11,12,62.44,62.44,0,0,1-.9,9.24,54.14,54.14,0,0,0-.9,8.25,10.25,10.25,0,0,0,2.11,6.42c1.41,1.82,3.69,2.79,6.86,2.91v5.38c-3.17.06-5.45,1-6.86,2.87a10.45,10.45,0,0,0-2.11,6.46,54.14,54.14,0,0,0,.9,8.25,62.56,62.56,0,0,1,.9,9.24,30.73,30.73,0,0,1-2.11,12,23.14,23.14,0,0,1-4.8,7.62,19,19,0,0,1-4.93,3.72H314.8V661.4a16.07,16.07,0,0,0,6-4.66,25.67,25.67,0,0,0,4.44-8.12,31.65,31.65,0,0,0,1.66-10.36,63.31,63.31,0,0,0-.9-9.42,47.92,47.92,0,0,1-.81-8.07q0-9.06,10-10.94v-.18Q330,608.66,327.62,605.93Z" transform="translate(-209.78 -279.42)"/><rect class="a9ac28bd-bb30-4af5-9a35-94d8d5da4723" x="282.72" y="383.13" width="51.75" height="33.48"/></svg>